<?xml version="1.0" standalone="no"?>
<!DOCTYPE svg PUBLIC "-//W3C//DTD SVG 20010904//EN"
 "http://www.w3.org/TR/2001/REC-SVG-20010904/DTD/svg10.dtd">
<svg version="1.0" xmlns="http://www.w3.org/2000/svg"
 width="64.000000pt" height="64.000000pt" viewBox="0 0 64.000000 64.000000"
 preserveAspectRatio="xMidYMid meet">

<g transform="translate(0.000000,64.000000) scale(0.100000,-0.100000)"
fill="#000000" stroke="none">
<path d="M320 498 c-19 -20 -19 -23 -3 -40 16 -18 17 -18 40 4 27 25 29 43 7
52 -22 8 -21 9 -44 -16z"/>
<path d="M375 450 c-17 -19 -17 -21 0 -40 16 -18 19 -18 42 -3 15 10 23 24 21
37 -4 28 -39 32 -63 6z"/>
<path d="M217 440 c-20 -4 -40 -9 -42 -12 -3 -3 -16 -39 -29 -80 l-23 -75 72
-79 72 -78 39 12 c21 7 62 32 89 57 l50 45 -31 0 c-34 0 -54 16 -54 42 0 10
-4 18 -10 18 -5 0 -12 11 -16 25 -7 29 -68 55 -87 36 -18 -18 -28 -12 -16 10
11 21 29 22 84 4 11 -3 28 0 39 8 17 13 16 15 -25 45 -45 33 -50 34 -112 22z"/>
<path d="M401 369 c-28 -23 -51 -45 -51 -49 0 -21 23 -19 72 6 57 29 69 40 61
60 -10 26 -34 21 -82 -17z"/>
<path d="M445 311 c-87 -39 -78 -73 14 -51 51 12 70 33 50 56 -14 17 -14 17
-64 -5z"/>
</g>
</svg>
