<?xml version="1.0" standalone="no"?>
<!DOCTYPE svg PUBLIC "-//W3C//DTD SVG 20010904//EN"
 "http://www.w3.org/TR/2001/REC-SVG-20010904/DTD/svg10.dtd">
<svg version="1.0" xmlns="http://www.w3.org/2000/svg"
 width="173.000000pt" height="257.000000pt" viewBox="0 0 173.000000 257.000000"
 preserveAspectRatio="xMidYMid meet">

<g transform="translate(0.000000,257.000000) scale(0.100000,-0.100000)"
fill="#000000" stroke="none">
<path d="M843 2316 l-28 -24 -3 -294 c-2 -161 -4 -306 -5 -323 -1 -16 1 -68 5
-115 8 -103 -1 -71 -37 135 -14 83 -29 210 -33 282 -7 121 -10 135 -32 158
-20 22 -32 25 -69 23 -34 -2 -48 -9 -64 -31 -20 -26 -21 -32 -9 -190 7 -89 12
-209 12 -266 0 -58 7 -146 16 -197 16 -88 14 -138 -6 -118 -15 16 -78 185
-100 269 -39 149 -61 204 -87 225 -34 27 -59 25 -88 -5 -19 -19 -25 -35 -25
-70 0 -54 27 -194 75 -385 18 -74 41 -191 49 -260 30 -237 63 -365 136 -540
12 -30 33 -80 46 -110 13 -31 33 -106 45 -168 l22 -112 264 0 c204 0 263 3
263 13 0 6 -7 48 -15 92 -8 44 -14 108 -15 142 0 58 3 67 40 115 81 107 108
250 88 461 -15 159 -14 363 2 447 10 51 35 360 47 577 5 92 5 93 -25 123 -32
32 -54 36 -96 20 -40 -15 -56 -61 -71 -203 -8 -73 -28 -198 -45 -279 -16 -81
-30 -160 -30 -175 0 -33 -15 -61 -27 -49 -8 7 -13 115 -27 536 -8 231 -19 281
-66 305 -41 21 -75 19 -107 -9z"/>
</g>
</svg>
