<?xml version="1.0" standalone="no"?>
<!DOCTYPE svg PUBLIC "-//W3C//DTD SVG 20010904//EN"
 "http://www.w3.org/TR/2001/REC-SVG-20010904/DTD/svg10.dtd">
<svg version="1.0" xmlns="http://www.w3.org/2000/svg"
 width="524.000000pt" height="564.000000pt" viewBox="0 0 524.000000 564.000000"
 preserveAspectRatio="xMidYMid meet">

<g transform="translate(0.000000,564.000000) scale(0.100000,-0.100000)"
fill="#000000" stroke="none">
<path d="M3820 5533 c-49 -18 -72 -56 -151 -247 -52 -128 -168 -334 -242 -431
-78 -101 -269 -312 -354 -391 -285 -262 -481 -407 -948 -704 -400 -254 -509
-346 -662 -552 -112 -150 -176 -193 -333 -222 -101 -19 -449 -62 -574 -72
l-88 -7 -16 -36 c-15 -32 -17 -125 -20 -842 l-4 -807 69 -6 c37 -3 178 -8 313
-11 462 -11 504 -19 650 -114 83 -55 354 -187 490 -239 95 -37 231 -82 605
-202 72 -23 201 -71 288 -106 196 -80 424 -160 615 -216 198 -58 264 -59 375
-6 159 76 237 191 224 332 -8 83 7 112 96 184 91 74 120 108 156 181 43 84 54
153 45 284 -8 132 -3 145 76 222 145 142 220 382 175 564 -9 39 -37 109 -60
155 l-44 84 70 79 c92 103 112 146 117 249 16 302 -103 483 -412 630 -128 60
-253 104 -513 180 -324 94 -363 114 -363 185 0 44 58 135 172 270 209 247 259
309 329 409 120 172 198 334 233 487 21 95 22 312 0 397 -41 164 -102 264
-185 306 -36 19 -96 25 -129 13z"/>
</g>
</svg>
