<?xml version="1.0" standalone="no"?>
<!DOCTYPE svg PUBLIC "-//W3C//DTD SVG 20010904//EN"
 "http://www.w3.org/TR/2001/REC-SVG-20010904/DTD/svg10.dtd">
<svg version="1.0" xmlns="http://www.w3.org/2000/svg"
 width="140.000000pt" height="236.000000pt" viewBox="0 0 140.000000 236.000000"
 preserveAspectRatio="xMidYMid meet">

<g transform="translate(0.000000,236.000000) scale(0.100000,-0.100000)"
fill="#000000" stroke="none">
<path d="M715 2166 c-32 -32 -32 -69 -6 -336 30 -298 32 -334 22 -349 -13 -20
-27 -7 -64 62 -284 521 -325 589 -373 612 -70 33 -143 -23 -131 -100 3 -18 31
-77 62 -131 31 -54 106 -196 166 -316 88 -176 109 -226 109 -261 0 -37 -4 -45
-31 -61 -18 -11 -72 -59 -120 -107 -97 -98 -116 -136 -105 -212 8 -54 61 -165
116 -248 82 -119 84 -129 76 -341 l-7 -188 258 2 258 3 12 118 c20 210 20 211
77 295 71 103 91 159 90 249 -1 66 -4 77 -31 111 -22 27 -33 56 -42 107 -6 39
-20 108 -31 155 -34 151 -79 399 -118 653 -44 283 -51 300 -120 305 -34 3 -47
-2 -67 -22z"/>
</g>
</svg>
