<?xml version="1.0" standalone="no"?>
<!DOCTYPE svg PUBLIC "-//W3C//DTD SVG 20010904//EN"
 "http://www.w3.org/TR/2001/REC-SVG-20010904/DTD/svg10.dtd">
<svg version="1.0" xmlns="http://www.w3.org/2000/svg"
 width="219.000000pt" height="229.000000pt" viewBox="0 0 219.000000 229.000000"
 preserveAspectRatio="xMidYMid meet">

<g transform="translate(0.000000,229.000000) scale(0.100000,-0.100000)"
fill="#000000" stroke="none">
<path d="M934 2239 c-40 -20 -44 -48 -45 -342 -1 -155 -2 -298 -3 -317 0 -19
3 -74 8 -122 7 -76 6 -88 -7 -88 -17 0 -22 12 -32 75 -3 22 -24 108 -47 190
-22 83 -46 195 -54 250 -8 55 -19 115 -25 133 -11 34 -52 62 -89 62 -33 0 -80
-53 -80 -90 0 -53 79 -589 97 -656 19 -70 11 -94 -32 -94 -22 0 -119 121 -269
336 -59 85 -69 94 -115 94 -62 0 -79 -74 -37 -159 14 -26 70 -123 126 -215 55
-92 107 -181 116 -197 8 -16 42 -138 75 -271 33 -133 72 -264 85 -290 33 -64
56 -199 55 -325 l0 -102 227 -1 c125 0 241 2 258 6 30 6 31 7 48 103 9 54 24
108 32 120 9 12 43 34 77 50 75 34 113 73 229 241 62 89 139 179 268 313 191
199 202 216 158 257 -28 26 -89 43 -125 34 -56 -13 -89 -39 -220 -166 -113
-111 -136 -129 -160 -126 -24 3 -31 12 -56 78 -26 67 -29 86 -28 187 1 62 8
157 16 210 7 54 16 157 20 228 3 72 11 185 17 251 13 149 4 188 -49 210 -42
18 -65 12 -96 -26 -25 -30 -28 -43 -57 -285 -21 -180 -66 -400 -81 -400 -15 0
-17 20 -38 355 -6 96 -11 222 -11 280 0 116 -11 168 -39 194 -24 22 -88 30
-117 15z"/>
</g>
</svg>
