<?xml version="1.0" standalone="no"?>
<!DOCTYPE svg PUBLIC "-//W3C//DTD SVG 20010904//EN"
 "http://www.w3.org/TR/2001/REC-SVG-20010904/DTD/svg10.dtd">
<svg version="1.0" xmlns="http://www.w3.org/2000/svg"
 width="176.000000pt" height="257.000000pt" viewBox="0 0 176.000000 257.000000"
 preserveAspectRatio="xMidYMid meet">

<g transform="translate(0.000000,257.000000) scale(0.100000,-0.100000)"
fill="#000000" stroke="none">
<path d="M1039 2361 c-16 -17 -29 -40 -28 -53 0 -13 17 -147 37 -298 l37 -275
-55 -5 c-30 -3 -65 -11 -76 -17 -24 -14 -54 -70 -54 -100 0 -17 -7 -19 -49
-19 -56 1 -93 -20 -126 -72 -14 -21 -26 -29 -38 -26 -31 9 -73 -6 -107 -39
-51 -50 -70 -100 -70 -192 0 -68 4 -89 30 -143 16 -34 36 -84 44 -110 8 -26
31 -92 51 -147 35 -93 38 -107 36 -200 0 -55 -5 -131 -10 -170 -4 -38 -7 -73
-4 -77 2 -5 119 -8 258 -8 286 0 266 -6 280 80 21 138 47 219 99 306 29 49 59
108 68 130 48 121 64 277 35 347 -9 19 -20 61 -27 94 -6 32 -18 78 -25 103
-18 57 -33 131 -101 515 -30 171 -59 325 -65 342 -22 67 -90 83 -140 34z"/>
</g>
</svg>
