<?xml version="1.0" standalone="no"?>
<!DOCTYPE svg PUBLIC "-//W3C//DTD SVG 20010904//EN"
 "http://www.w3.org/TR/2001/REC-SVG-20010904/DTD/svg10.dtd">
<svg version="1.0" xmlns="http://www.w3.org/2000/svg"
 width="172.000000pt" height="236.000000pt" viewBox="0 0 172.000000 236.000000"
 preserveAspectRatio="xMidYMid meet">

<g transform="translate(0.000000,236.000000) scale(0.100000,-0.100000)"
fill="#000000" stroke="none">
<path d="M774 2278 c-37 -18 -44 -51 -44 -221 0 -89 -5 -193 -11 -232 -6 -38
-11 -135 -11 -213 0 -79 -1 -142 -3 -140 -16 16 -57 289 -66 433 -5 94 -12
178 -15 188 -9 27 -61 50 -100 42 -44 -8 -64 -38 -65 -101 -4 -116 14 -486 27
-564 20 -124 19 -144 -12 -161 -51 -27 -123 -117 -140 -175 -14 -50 -14 -67 0
-197 21 -182 30 -228 71 -362 18 -60 48 -171 66 -245 18 -74 36 -145 40 -157
l9 -23 257 0 258 0 0 137 c0 126 2 141 22 173 72 112 110 230 114 355 1 33 -4
137 -10 230 -13 180 -8 316 15 428 8 38 14 112 14 165 0 54 9 171 20 261 12
90 18 177 15 192 -12 55 -72 75 -117 39 -27 -20 -46 -93 -68 -255 -6 -44 -24
-129 -40 -190 -16 -60 -32 -131 -35 -156 -7 -47 -20 -77 -29 -68 -3 3 -8 171
-11 374 -4 221 -11 381 -17 398 -18 47 -84 70 -134 45z"/>
</g>
</svg>
